<?xml version="1.0" encoding="UTF-8" standalone="no"?>
<!DOCTYPE svg PUBLIC "-//W3C//DTD SVG 1.1//EN" "http://www.w3.org/Graphics/SVG/1.1/DTD/svg11.dtd" [
	<!ENTITY ns_svg "http://www.w3.org/2000/svg">
	<!ENTITY ns_xlink "http://www.w3.org/1999/xlink">
	<!ENTITY stroke_color "#020202">
	<!ENTITY fill_color "#0000ff">
	<!ENTITY b_fill "#B2B2B2">
	<!ENTITY b_stroke "#000000">
]>

<svg  version="1.1" id="Icon" xmlns="&ns_svg;" xmlns:xlink="&ns_xlink;" width="64" height="64"
	 viewBox="0 0 64 64" overflow="visible" enable-background="new 0 0 64 64" xml:space="preserve">

  <rect fill="&b_fill;" stroke="&b_stroke;" stroke-width="3px" x="3" y="2" width="60" height="60" rx="8"/>
  
  <path
     d="M 38.404455,39.235864 L 48.504455,49.335864 C 49.256455,50.085864 49.721455,51.120864 49.721455,52.267864 C 49.721455,54.554864 47.866455,56.410864 45.575455,56.410864 C 44.430455,56.410864 43.397455,55.947864 42.643455,55.199864 L 32.543455,45.097864 L 22.443455,55.197864 C 21.693455,55.947864 20.656455,56.408864 19.510455,56.408864 C 17.225455,56.408864 15.368455,54.554864 15.368455,52.267864 C 15.368455,51.121864 15.833455,50.083864 16.580455,49.333864 L 26.683455,39.233864 L 16.580455,29.131864 C 15.833455,28.382864 15.368455,27.346864 15.368455,26.201864 C 15.368455,23.912864 17.221455,22.056864 19.513455,22.056864 C 20.656455,22.056864 21.693455,22.521864 22.443455,23.270864 L 32.542455,33.371864 L 42.642455,23.269864 C 43.396455,22.520864 44.429455,22.055864 45.576455,22.055864 C 47.865455,22.055864 49.722455,23.911864 49.722455,26.200864 C 49.722455,27.345864 49.255455,28.379864 48.505455,29.130864 L 38.404455,39.235864 z "
     fill="&fill_color;" stroke="&stroke_color;" stroke-width="3.5" />
  
  <circle cx="18.924999" cy="9.8719997" r="8.1219997" transform="translate(13.617455,5.111864)"
	  fill="&fill_color;" stroke="&stroke_color;" stroke-width="3.5" />
  
</svg>
