<?xml version="1.0" encoding="UTF-8"?>
<!DOCTYPE svg PUBLIC "-//W3C//DTD SVG 1.1//EN" "http://www.w3.org/Graphics/SVG/1.1/DTD/svg11.dtd" [
  <!ENTITY fill_color "#FFFFFF">
  <!ENTITY stroke_color "#010101">
]>

<svg
   xmlns="http://www.w3.org/2000/svg"
   version="1.1"
   width="22.16"
   height="22.16"
   id="svg7384">
  <title
     id="title9167">Gnome Symbolic Icon Theme</title>
  <g
     transform="translate(-101.0002,-390.84)"
     id="layer9"
     style="display:inline">
    <g
       transform="translate(81.0002,121)"
       id="g4053-3-8"
       style="fill:#bebebe;fill-opacity:1" />
    <g
       transform="matrix(1.3,0,0,1.3,-30.225691,-123.93)"
       id="g4347">
      <path
         d="m 106.0002,397 c -1.64469,0 -3,1.35529 -3,3 l 0,3 2,0 0,-3 c 0,-0.57129 0.42873,-1 1,-1 l 2,0 c 0.57127,0 1,0.42871 1,1 l 0,0.25 c 0.26687,-0.14912 0.55674,-0.25 0.875,-0.25 l 1.125,0 c 0,-1.64471 -1.35531,-3 -3,-3 z m -3.0625,9 c -0.554,0 -1.06473,0.44979 -1,1 l 0,0.53125 0,4.46875 10.0625,0 0,-2 -2.125,0 c -1.01035,0 -1.875,-0.86466 -1.875,-1.875 l 0,-2.125 z"
         id="rect4063-6-6"
         style="color:#bebebe;fill:&stroke_color;;fill-opacity:1;fill-rule:nonzero;stroke:none;stroke-width:2;marker:none;visibility:visible;display:inline;overflow:visible" />
      <path
         d="m 109.875,401 c -0.49245,0 -0.875,0.38256 -0.875,0.875 l 0,6.25 c 0,0.49244 0.38255,0.875 0.875,0.875 l 6.25,0 c 0.49245,0 0.875,-0.38256 0.875,-0.875 l 0,-6.25 C 117,401.38256 116.61745,401 116.125,401 z m 2.50204,1 1.24592,0 0,4 -1.24592,0 z m 0,5 1.24592,0 0,1 -1.24592,0 z"
         id="path10898-3-1"
         style="color:#bebebe;fill:&stroke_color;;fill-opacity:1;fill-rule:nonzero;stroke:none;stroke-width:2;marker:none;visibility:visible;display:inline;overflow:visible" />
    </g>
  </g>
  <g
     transform="translate(-101.0002,-390.84)"
     id="layer10" />
  <g
     transform="translate(-101.0002,-390.84)"
     id="layer11" />
  <g
     transform="translate(-101.0002,-390.84)"
     id="layer12" />
  <g
     transform="translate(-101.0002,-390.84)"
     id="layer13" />
  <g
     transform="translate(-101.0002,-390.84)"
     id="layer14" />
  <g
     transform="translate(-101.0002,-390.84)"
     id="layer15"
     style="display:inline" />
  <g
     transform="translate(-101.0002,-390.84)"
     id="g4953"
     style="display:inline" />
</svg>
