<?xml version="1.0" encoding="UTF-8"?>
<!DOCTYPE svg PUBLIC "-//W3C//DTD SVG 1.1//EN" "http://www.w3.org/Graphics/SVG/1.1/DTD/svg11.dtd" [
  <!ENTITY fill_color "#FFFFFF">
  <!ENTITY stroke_color "#010101">
]>

<svg
   xmlns="http://www.w3.org/2000/svg"
   version="1.1"
   width="22.16"
   height="22.16"
   id="svg7384">
  <title
     id="title9167">Gnome Symbolic Icon Theme</title>
  <g
     transform="translate(-81.0002,-390.84)"
     id="layer9"
     style="display:inline">
    <g
       transform="matrix(1.3,0,0,1.3,-23.597904,-123.93)"
       id="g3526">
      <g
         transform="translate(61.0002,121)"
         id="g4053-1-5"
         style="fill:#bebebe;fill-opacity:1" />
      <path
         d="m 85.0002,404 c -0.554,0 -1.18921,0.47931 -1,1 l 0,0.53125 0,4.46875 10,0 0,-4.46875 0,-0.53125 c 0,-0.554 -0.446,-1 -1,-1 z"
         id="rect4063-8-6"
         style="color:#bebebe;fill:&stroke_color;;fill-opacity:1;fill-rule:nonzero;stroke:none;stroke-width:2;marker:none;visibility:visible;display:inline;overflow:visible" />
      <path
         d="m 88,399 c -1.644703,0 -3,1.3553 -3,3 l 0,4 c 0,1.6447 1.355297,3 3,3 l 2,0 c 1.644703,0 3,-1.3553 3,-3 l 0,-4 c 0,-1.6447 -1.355297,-3 -3,-3 l -2,0 z m 0,2 2,0 c 0.571297,0 1,0.4287 1,1 l 0,4 c 0,0.5713 -0.428703,1 -1,1 l -2,0 c -0.571297,0 -1,-0.4287 -1,-1 l 0,-4 c 0,-0.5713 0.428703,-1 1,-1 z"
         id="rect4291-5-4"
         style="font-size:medium;font-style:normal;font-variant:normal;font-weight:normal;font-stretch:normal;text-indent:0;text-align:start;text-decoration:none;line-height:normal;letter-spacing:normal;word-spacing:normal;text-transform:none;direction:ltr;block-progression:tb;writing-mode:lr-tb;text-anchor:start;baseline-shift:baseline;color:#bebebe;fill:&stroke_color;;fill-opacity:1;stroke:none;stroke-width:2;marker:none;visibility:visible;display:inline;overflow:visible;enable-background:accumulate;font-family:Sans;-inkscape-font-specification:Sans" />
    </g>
  </g>
  <g
     transform="translate(-81.0002,-390.84)"
     id="layer10" />
  <g
     transform="translate(-81.0002,-390.84)"
     id="layer11" />
  <g
     transform="translate(-81.0002,-390.84)"
     id="layer12"
     style="display:inline" />
  <g
     transform="translate(-81.0002,-390.84)"
     id="layer13" />
  <g
     transform="translate(-81.0002,-390.84)"
     id="layer14" />
  <g
     transform="translate(-81.0002,-390.84)"
     id="layer15"
     style="display:inline" />
  <g
     transform="translate(-81.0002,-390.84)"
     id="g4953"
     style="display:inline" />
</svg>
